<mxfile host="www.draw.io" modified="2019-10-28T18:26:05.413Z" agent="Mozilla/5.0 (Windows NT 10.0; Win64; x64) AppleWebKit/537.36 (KHTML, like Gecko) Chrome/77.0.3865.120 Safari/537.36" etag="naG4MTP_wUA7UM7jT_PX" version="12.1.8" type="github" pages="2">
  <diagram id="6ui1FrbZEnisGTbgYbev" name="Page-1">
    <mxGraphModel dx="1259" dy="1565" grid="1" gridSize="10" guides="1" tooltips="1" connect="1" arrows="1" fold="1" page="1" pageScale="1" pageWidth="850" pageHeight="1100" math="0" shadow="0">
      <root>
        <mxCell id="0"/>
        <mxCell id="1" parent="0"/>
        <mxCell id="gt6GTdztzGxbpCwawgnW-2" value="Main" style="text;html=1;resizable=0;points=[];autosize=1;align=left;verticalAlign=top;spacingTop=-4;" parent="1" vertex="1">
          <mxGeometry x="384" y="-330" width="40" height="10" as="geometry"/>
        </mxCell>
        <mxCell id="gt6GTdztzGxbpCwawgnW-3" value="START" style="ellipse;whiteSpace=wrap;html=1;" parent="1" vertex="1">
          <mxGeometry x="340" y="-240" width="120" height="40" as="geometry"/>
        </mxCell>
        <mxCell id="c8OhrS-lIEMKiGtSMF91-1" value="SingleStoryHome currentDesign = new SingleStoryHome()" style="shape=process;whiteSpace=wrap;html=1;backgroundOutline=1;" parent="1" vertex="1">
          <mxGeometry x="200" y="100" width="400" height="50" as="geometry"/>
        </mxCell>
        <mxCell id="c8OhrS-lIEMKiGtSMF91-2" value="displayWelcomeMessage()" style="shape=process;whiteSpace=wrap;html=1;backgroundOutline=1;" parent="1" vertex="1">
          <mxGeometry x="200" y="170" width="400" height="60" as="geometry"/>
        </mxCell>
        <mxCell id="c8OhrS-lIEMKiGtSMF91-3" value="userName = getUserName(input)" style="shape=process;whiteSpace=wrap;html=1;backgroundOutline=1;" parent="1" vertex="1">
          <mxGeometry x="200" y="250" width="400" height="60" as="geometry"/>
        </mxCell>
        <mxCell id="c8OhrS-lIEMKiGtSMF91-4" value="menuSelection = validateMenuSelection(input)" style="shape=process;whiteSpace=wrap;html=1;backgroundOutline=1;" parent="1" vertex="1">
          <mxGeometry x="200" y="330" width="400" height="60" as="geometry"/>
        </mxCell>
        <mxCell id="c8OhrS-lIEMKiGtSMF91-6" value="menuSelection != &#39;Q&#39;" style="rhombus;whiteSpace=wrap;html=1;" parent="1" vertex="1">
          <mxGeometry x="215" y="420" width="370" height="80" as="geometry"/>
        </mxCell>
        <mxCell id="c8OhrS-lIEMKiGtSMF91-9" value="currentBedroomCount = validateBedroomCount(input)" style="shape=process;whiteSpace=wrap;html=1;backgroundOutline=1;" parent="1" vertex="1">
          <mxGeometry x="560" y="490" width="380" height="60" as="geometry"/>
        </mxCell>
        <mxCell id="c8OhrS-lIEMKiGtSMF91-10" value="currentBathroomCount = validateBathroomCount(input)" style="shape=process;whiteSpace=wrap;html=1;backgroundOutline=1;" parent="1" vertex="1">
          <mxGeometry x="560" y="570" width="380" height="60" as="geometry"/>
        </mxCell>
        <mxCell id="c8OhrS-lIEMKiGtSMF91-12" value="" style="endArrow=classic;html=1;entryX=0.5;entryY=0;entryDx=0;entryDy=0;" parent="1" source="c8OhrS-lIEMKiGtSMF91-1" target="c8OhrS-lIEMKiGtSMF91-2" edge="1">
          <mxGeometry width="50" height="50" relative="1" as="geometry">
            <mxPoint x="80" y="180" as="sourcePoint"/>
            <mxPoint x="130" y="130" as="targetPoint"/>
          </mxGeometry>
        </mxCell>
        <mxCell id="c8OhrS-lIEMKiGtSMF91-13" value="" style="endArrow=classic;html=1;entryX=0.5;entryY=0;entryDx=0;entryDy=0;" parent="1" source="c8OhrS-lIEMKiGtSMF91-2" target="c8OhrS-lIEMKiGtSMF91-3" edge="1">
          <mxGeometry width="50" height="50" relative="1" as="geometry">
            <mxPoint x="100" y="190" as="sourcePoint"/>
            <mxPoint x="150" y="140" as="targetPoint"/>
          </mxGeometry>
        </mxCell>
        <mxCell id="c8OhrS-lIEMKiGtSMF91-14" value="" style="endArrow=classic;html=1;entryX=0.5;entryY=0;entryDx=0;entryDy=0;" parent="1" source="c8OhrS-lIEMKiGtSMF91-3" target="c8OhrS-lIEMKiGtSMF91-4" edge="1">
          <mxGeometry width="50" height="50" relative="1" as="geometry">
            <mxPoint x="80" y="320" as="sourcePoint"/>
            <mxPoint x="130" y="270" as="targetPoint"/>
          </mxGeometry>
        </mxCell>
        <mxCell id="c8OhrS-lIEMKiGtSMF91-15" value="" style="endArrow=classic;html=1;entryX=0.5;entryY=0;entryDx=0;entryDy=0;exitX=0.5;exitY=1;exitDx=0;exitDy=0;" parent="1" source="c8OhrS-lIEMKiGtSMF91-4" target="c8OhrS-lIEMKiGtSMF91-6" edge="1">
          <mxGeometry width="50" height="50" relative="1" as="geometry">
            <mxPoint x="60" y="420" as="sourcePoint"/>
            <mxPoint x="110" y="370" as="targetPoint"/>
          </mxGeometry>
        </mxCell>
        <mxCell id="c8OhrS-lIEMKiGtSMF91-16" value="" style="endArrow=classic;html=1;" parent="1" edge="1">
          <mxGeometry width="50" height="50" relative="1" as="geometry">
            <mxPoint x="1250" y="400" as="sourcePoint"/>
            <mxPoint x="400" y="400" as="targetPoint"/>
          </mxGeometry>
        </mxCell>
        <mxCell id="c8OhrS-lIEMKiGtSMF91-17" value="" style="endArrow=none;html=1;exitX=1;exitY=0.5;exitDx=0;exitDy=0;" parent="1" source="c8OhrS-lIEMKiGtSMF91-6" edge="1">
          <mxGeometry width="50" height="50" relative="1" as="geometry">
            <mxPoint x="760" y="490" as="sourcePoint"/>
            <mxPoint x="750" y="460" as="targetPoint"/>
            <Array as="points"/>
          </mxGeometry>
        </mxCell>
        <mxCell id="c8OhrS-lIEMKiGtSMF91-20" value="" style="endArrow=classic;html=1;" parent="1" source="c8OhrS-lIEMKiGtSMF91-9" edge="1">
          <mxGeometry width="50" height="50" relative="1" as="geometry">
            <mxPoint x="400" y="620" as="sourcePoint"/>
            <mxPoint x="750" y="570" as="targetPoint"/>
          </mxGeometry>
        </mxCell>
        <mxCell id="c8OhrS-lIEMKiGtSMF91-21" value="" style="endArrow=classic;html=1;entryX=0.5;entryY=0;entryDx=0;entryDy=0;" parent="1" target="c8OhrS-lIEMKiGtSMF91-9" edge="1">
          <mxGeometry width="50" height="50" relative="1" as="geometry">
            <mxPoint x="750" y="460" as="sourcePoint"/>
            <mxPoint x="750" y="310" as="targetPoint"/>
          </mxGeometry>
        </mxCell>
        <mxCell id="c8OhrS-lIEMKiGtSMF91-22" value="currnetHome.setBedroomCount (currentBedroomNumber)" style="shape=process;whiteSpace=wrap;html=1;backgroundOutline=1;" parent="1" vertex="1">
          <mxGeometry x="560" y="650" width="380" height="60" as="geometry"/>
        </mxCell>
        <mxCell id="c8OhrS-lIEMKiGtSMF91-23" value="currentHome.setBathroomCount (currentBathroomNumber)" style="shape=process;whiteSpace=wrap;html=1;backgroundOutline=1;" parent="1" vertex="1">
          <mxGeometry x="560" y="730" width="380" height="60" as="geometry"/>
        </mxCell>
        <mxCell id="c8OhrS-lIEMKiGtSMF91-24" value="currentDesign.getHomeArea() &amp;gt; currentDesign.getMaxHomeArea()" style="rhombus;whiteSpace=wrap;html=1;" parent="1" vertex="1">
          <mxGeometry x="600" y="810" width="300" height="80" as="geometry"/>
        </mxCell>
        <mxCell id="c8OhrS-lIEMKiGtSMF91-25" value="displayOverMaxArea (currentDesign.getHomeArea(),&amp;nbsp;&lt;br&gt;currentDesign.getMaxHomeArea())" style="shape=process;whiteSpace=wrap;html=1;backgroundOutline=1;" parent="1" vertex="1">
          <mxGeometry x="860" y="880" width="310" height="60" as="geometry"/>
        </mxCell>
        <mxCell id="c8OhrS-lIEMKiGtSMF91-26" value="" style="endArrow=classic;html=1;entryX=0.5;entryY=0;entryDx=0;entryDy=0;" parent="1" target="c8OhrS-lIEMKiGtSMF91-25" edge="1">
          <mxGeometry width="50" height="50" relative="1" as="geometry">
            <mxPoint x="1015" y="850" as="sourcePoint"/>
            <mxPoint x="1060" y="640" as="targetPoint"/>
          </mxGeometry>
        </mxCell>
        <mxCell id="c8OhrS-lIEMKiGtSMF91-27" value="" style="endArrow=none;html=1;exitX=1;exitY=0.5;exitDx=0;exitDy=0;" parent="1" source="c8OhrS-lIEMKiGtSMF91-24" edge="1">
          <mxGeometry width="50" height="50" relative="1" as="geometry">
            <mxPoint x="990" y="760" as="sourcePoint"/>
            <mxPoint x="1020" y="850" as="targetPoint"/>
          </mxGeometry>
        </mxCell>
        <mxCell id="c8OhrS-lIEMKiGtSMF91-29" value="displayDesignDetails (userName, currentHome.getBedroomCount(), currentHome.getBedroomArea(), currentHome.getBathroomCount(), currentHome.getBathroomArea(),&amp;nbsp;&lt;br&gt;currentHome.getMaxRoomCount(), currentHome.getKitchenArea(), currentHome.getLivingroomArea(), currentHome.getHomeArea())" style="shape=process;whiteSpace=wrap;html=1;backgroundOutline=1;" parent="1" vertex="1">
          <mxGeometry x="565" y="960" width="370" height="150" as="geometry"/>
        </mxCell>
        <mxCell id="c8OhrS-lIEMKiGtSMF91-30" value="menuSelection = validateMenuSelection(input)" style="shape=process;whiteSpace=wrap;html=1;backgroundOutline=1;" parent="1" vertex="1">
          <mxGeometry x="710" y="1130" width="355" height="60" as="geometry"/>
        </mxCell>
        <mxCell id="c8OhrS-lIEMKiGtSMF91-31" value="" style="endArrow=none;html=1;" parent="1" edge="1">
          <mxGeometry width="50" height="50" relative="1" as="geometry">
            <mxPoint x="740" y="1120" as="sourcePoint"/>
            <mxPoint x="1020" y="1120" as="targetPoint"/>
          </mxGeometry>
        </mxCell>
        <mxCell id="c8OhrS-lIEMKiGtSMF91-32" value="" style="endArrow=none;html=1;entryX=0.5;entryY=1;entryDx=0;entryDy=0;" parent="1" target="c8OhrS-lIEMKiGtSMF91-29" edge="1">
          <mxGeometry width="50" height="50" relative="1" as="geometry">
            <mxPoint x="750" y="1120" as="sourcePoint"/>
            <mxPoint x="250" y="1210" as="targetPoint"/>
          </mxGeometry>
        </mxCell>
        <mxCell id="c8OhrS-lIEMKiGtSMF91-33" value="" style="endArrow=none;html=1;entryX=0.5;entryY=1;entryDx=0;entryDy=0;" parent="1" target="c8OhrS-lIEMKiGtSMF91-25" edge="1">
          <mxGeometry width="50" height="50" relative="1" as="geometry">
            <mxPoint x="1015" y="1120" as="sourcePoint"/>
            <mxPoint x="960" y="980" as="targetPoint"/>
          </mxGeometry>
        </mxCell>
        <mxCell id="c8OhrS-lIEMKiGtSMF91-34" value="" style="endArrow=classic;html=1;entryX=0.5;entryY=0;entryDx=0;entryDy=0;" parent="1" target="c8OhrS-lIEMKiGtSMF91-30" edge="1">
          <mxGeometry width="50" height="50" relative="1" as="geometry">
            <mxPoint x="880" y="1120" as="sourcePoint"/>
            <mxPoint x="330" y="1150" as="targetPoint"/>
          </mxGeometry>
        </mxCell>
        <mxCell id="c8OhrS-lIEMKiGtSMF91-35" value="" style="endArrow=none;html=1;entryX=0.5;entryY=1;entryDx=0;entryDy=0;" parent="1" target="c8OhrS-lIEMKiGtSMF91-30" edge="1">
          <mxGeometry width="50" height="50" relative="1" as="geometry">
            <mxPoint x="888" y="1220" as="sourcePoint"/>
            <mxPoint x="910" y="1260" as="targetPoint"/>
          </mxGeometry>
        </mxCell>
        <mxCell id="c8OhrS-lIEMKiGtSMF91-36" value="" style="endArrow=none;html=1;" parent="1" edge="1">
          <mxGeometry width="50" height="50" relative="1" as="geometry">
            <mxPoint x="890" y="1220" as="sourcePoint"/>
            <mxPoint x="1250" y="1220" as="targetPoint"/>
          </mxGeometry>
        </mxCell>
        <mxCell id="c8OhrS-lIEMKiGtSMF91-37" value="" style="endArrow=none;html=1;" parent="1" edge="1">
          <mxGeometry width="50" height="50" relative="1" as="geometry">
            <mxPoint x="1250" y="1220" as="sourcePoint"/>
            <mxPoint x="1250" y="400" as="targetPoint"/>
          </mxGeometry>
        </mxCell>
        <mxCell id="c8OhrS-lIEMKiGtSMF91-38" value="" style="endArrow=classic;html=1;entryX=0.5;entryY=0;entryDx=0;entryDy=0;exitX=0.5;exitY=1;exitDx=0;exitDy=0;" parent="1" source="c8OhrS-lIEMKiGtSMF91-10" target="c8OhrS-lIEMKiGtSMF91-22" edge="1">
          <mxGeometry width="50" height="50" relative="1" as="geometry">
            <mxPoint x="370" y="710" as="sourcePoint"/>
            <mxPoint x="420" y="660" as="targetPoint"/>
          </mxGeometry>
        </mxCell>
        <mxCell id="c8OhrS-lIEMKiGtSMF91-39" value="" style="endArrow=classic;html=1;entryX=0.5;entryY=0;entryDx=0;entryDy=0;" parent="1" source="c8OhrS-lIEMKiGtSMF91-22" target="c8OhrS-lIEMKiGtSMF91-23" edge="1">
          <mxGeometry width="50" height="50" relative="1" as="geometry">
            <mxPoint x="360" y="640" as="sourcePoint"/>
            <mxPoint x="410" y="590" as="targetPoint"/>
          </mxGeometry>
        </mxCell>
        <mxCell id="c8OhrS-lIEMKiGtSMF91-40" value="" style="endArrow=classic;html=1;entryX=0.5;entryY=0;entryDx=0;entryDy=0;exitX=0.5;exitY=1;exitDx=0;exitDy=0;" parent="1" source="c8OhrS-lIEMKiGtSMF91-23" target="c8OhrS-lIEMKiGtSMF91-24" edge="1">
          <mxGeometry width="50" height="50" relative="1" as="geometry">
            <mxPoint x="390" y="790" as="sourcePoint"/>
            <mxPoint x="440" y="740" as="targetPoint"/>
          </mxGeometry>
        </mxCell>
        <mxCell id="c8OhrS-lIEMKiGtSMF91-41" value="" style="endArrow=classic;html=1;entryX=0.5;entryY=0;entryDx=0;entryDy=0;exitX=0.5;exitY=1;exitDx=0;exitDy=0;" parent="1" source="c8OhrS-lIEMKiGtSMF91-24" target="c8OhrS-lIEMKiGtSMF91-29" edge="1">
          <mxGeometry width="50" height="50" relative="1" as="geometry">
            <mxPoint x="450" y="900" as="sourcePoint"/>
            <mxPoint x="500" y="850" as="targetPoint"/>
          </mxGeometry>
        </mxCell>
        <mxCell id="c8OhrS-lIEMKiGtSMF91-42" value="" style="endArrow=classic;html=1;exitX=0.5;exitY=1;exitDx=0;exitDy=0;" parent="1" source="c8OhrS-lIEMKiGtSMF91-6" edge="1">
          <mxGeometry width="50" height="50" relative="1" as="geometry">
            <mxPoint x="210" y="750" as="sourcePoint"/>
            <mxPoint x="400" y="1130" as="targetPoint"/>
          </mxGeometry>
        </mxCell>
        <mxCell id="c8OhrS-lIEMKiGtSMF91-43" value="displayFarewellMessage" style="shape=process;whiteSpace=wrap;html=1;backgroundOutline=1;" parent="1" vertex="1">
          <mxGeometry x="180" y="1130" width="440" height="60" as="geometry"/>
        </mxCell>
        <mxCell id="c8OhrS-lIEMKiGtSMF91-44" value="STOP" style="ellipse;whiteSpace=wrap;html=1;" parent="1" vertex="1">
          <mxGeometry x="340" y="1210" width="120" height="50" as="geometry"/>
        </mxCell>
        <mxCell id="c8OhrS-lIEMKiGtSMF91-45" value="" style="endArrow=classic;html=1;entryX=0.5;entryY=0;entryDx=0;entryDy=0;" parent="1" source="c8OhrS-lIEMKiGtSMF91-43" target="c8OhrS-lIEMKiGtSMF91-44" edge="1">
          <mxGeometry width="50" height="50" relative="1" as="geometry">
            <mxPoint x="150" y="1330" as="sourcePoint"/>
            <mxPoint x="200" y="1280" as="targetPoint"/>
          </mxGeometry>
        </mxCell>
        <mxCell id="7_4_WLaT7tSa0hs18G8x-1" value="currentBedroomCount&amp;nbsp;" style="rounded=0;whiteSpace=wrap;html=1;" parent="1" vertex="1">
          <mxGeometry x="240" y="-40" width="320" height="50" as="geometry"/>
        </mxCell>
        <mxCell id="7_4_WLaT7tSa0hs18G8x-2" value="currentBathroomCount" style="rounded=0;whiteSpace=wrap;html=1;" parent="1" vertex="1">
          <mxGeometry x="240" y="30" width="320" height="50" as="geometry"/>
        </mxCell>
        <mxCell id="7_4_WLaT7tSa0hs18G8x-3" value="userName&amp;nbsp;" style="rounded=0;whiteSpace=wrap;html=1;" parent="1" vertex="1">
          <mxGeometry x="240" y="-180" width="320" height="50" as="geometry"/>
        </mxCell>
        <mxCell id="7_4_WLaT7tSa0hs18G8x-4" value="menuSelection" style="rounded=0;whiteSpace=wrap;html=1;direction=west;" parent="1" vertex="1">
          <mxGeometry x="240" y="-110" width="320" height="50" as="geometry"/>
        </mxCell>
        <mxCell id="sOKhn47a7Ha_qVfNHW_F-2" value="" style="endArrow=classic;html=1;entryX=0.5;entryY=0;entryDx=0;entryDy=0;exitX=0.5;exitY=1;exitDx=0;exitDy=0;" parent="1" source="gt6GTdztzGxbpCwawgnW-3" target="7_4_WLaT7tSa0hs18G8x-3" edge="1">
          <mxGeometry width="50" height="50" relative="1" as="geometry">
            <mxPoint x="540" y="-200" as="sourcePoint"/>
            <mxPoint x="590" y="-250" as="targetPoint"/>
          </mxGeometry>
        </mxCell>
        <mxCell id="sOKhn47a7Ha_qVfNHW_F-3" value="" style="endArrow=classic;html=1;entryX=0.5;entryY=1;entryDx=0;entryDy=0;exitX=0.5;exitY=1;exitDx=0;exitDy=0;" parent="1" source="7_4_WLaT7tSa0hs18G8x-3" target="7_4_WLaT7tSa0hs18G8x-4" edge="1">
          <mxGeometry width="50" height="50" relative="1" as="geometry">
            <mxPoint x="710" y="-200" as="sourcePoint"/>
            <mxPoint x="760" y="-250" as="targetPoint"/>
          </mxGeometry>
        </mxCell>
        <mxCell id="sOKhn47a7Ha_qVfNHW_F-4" value="" style="endArrow=classic;html=1;entryX=0.5;entryY=0;entryDx=0;entryDy=0;" parent="1" source="7_4_WLaT7tSa0hs18G8x-4" target="7_4_WLaT7tSa0hs18G8x-1" edge="1">
          <mxGeometry width="50" height="50" relative="1" as="geometry">
            <mxPoint x="640" y="-30" as="sourcePoint"/>
            <mxPoint x="670" y="-90" as="targetPoint"/>
          </mxGeometry>
        </mxCell>
        <mxCell id="sOKhn47a7Ha_qVfNHW_F-6" value="" style="endArrow=classic;html=1;exitX=0.5;exitY=1;exitDx=0;exitDy=0;entryX=0.5;entryY=0;entryDx=0;entryDy=0;" parent="1" source="7_4_WLaT7tSa0hs18G8x-1" target="7_4_WLaT7tSa0hs18G8x-2" edge="1">
          <mxGeometry width="50" height="50" relative="1" as="geometry">
            <mxPoint x="620" y="30" as="sourcePoint"/>
            <mxPoint x="670" y="-20" as="targetPoint"/>
          </mxGeometry>
        </mxCell>
        <mxCell id="sOKhn47a7Ha_qVfNHW_F-7" value="" style="endArrow=classic;html=1;entryX=0.5;entryY=0;entryDx=0;entryDy=0;exitX=0.5;exitY=1;exitDx=0;exitDy=0;" parent="1" source="7_4_WLaT7tSa0hs18G8x-2" target="c8OhrS-lIEMKiGtSMF91-1" edge="1">
          <mxGeometry width="50" height="50" relative="1" as="geometry">
            <mxPoint x="610" y="50" as="sourcePoint"/>
            <mxPoint x="660" as="targetPoint"/>
          </mxGeometry>
        </mxCell>
      </root>
    </mxGraphModel>
  </diagram>
  <diagram id="aXtUtcFo_OjhmOZKLToO" name="Page-2">
    <mxGraphModel dx="1259" dy="519" grid="1" gridSize="10" guides="1" tooltips="1" connect="1" arrows="1" fold="1" page="1" pageScale="1" pageWidth="850" pageHeight="1100" math="0" shadow="0">
      <root>
        <mxCell id="xE9GC7qUYU_D9eysOOlt-0"/>
        <mxCell id="xE9GC7qUYU_D9eysOOlt-1" parent="xE9GC7qUYU_D9eysOOlt-0"/>
        <mxCell id="xE9GC7qUYU_D9eysOOlt-2" value="UML" style="text;html=1;resizable=0;points=[];autosize=1;align=left;verticalAlign=top;spacingTop=-4;" parent="xE9GC7qUYU_D9eysOOlt-1" vertex="1">
          <mxGeometry x="410" y="13" width="40" height="10" as="geometry"/>
        </mxCell>
        <mxCell id="xE9GC7qUYU_D9eysOOlt-3" value="START" style="ellipse;whiteSpace=wrap;html=1;" parent="xE9GC7qUYU_D9eysOOlt-1" vertex="1">
          <mxGeometry x="365" y="40" width="120" height="40" as="geometry"/>
        </mxCell>
        <mxCell id="xE9GC7qUYU_D9eysOOlt-16" value="" style="endArrow=classic;html=1;entryX=0.5;entryY=0;entryDx=0;entryDy=0;exitX=0.5;exitY=1;exitDx=0;exitDy=0;" parent="xE9GC7qUYU_D9eysOOlt-1" source="xE9GC7qUYU_D9eysOOlt-3" edge="1">
          <mxGeometry width="50" height="50" relative="1" as="geometry">
            <mxPoint x="230" y="90" as="sourcePoint"/>
            <mxPoint x="425" y="110" as="targetPoint"/>
          </mxGeometry>
        </mxCell>
        <mxCell id="xE9GC7qUYU_D9eysOOlt-25" value="SingleStoryHome" style="swimlane;fontStyle=1;align=center;verticalAlign=top;childLayout=stackLayout;horizontal=1;startSize=26;horizontalStack=0;resizeParent=1;resizeParentMax=0;resizeLast=0;collapsible=1;marginBottom=0;" parent="xE9GC7qUYU_D9eysOOlt-1" vertex="1">
          <mxGeometry x="170" y="110" width="510" height="340" as="geometry"/>
        </mxCell>
        <mxCell id="xE9GC7qUYU_D9eysOOlt-26" value="- BEDROOM_SIZE = 231.0&#xa;- BATHROOM_SIZE = 115.0&#xa;- KITCHEN_SIZE = 192.0&#xa;- LIVINGROOM_SIZE = 256.0&#xa;- MAX_HOME_AREA = 1400.0&#xa;- MAX_ROOM_COUNT = 1&#xa;- bedroomCount&#xa;- bathroomCount&#xa;" style="text;strokeColor=none;fillColor=none;align=left;verticalAlign=top;spacingLeft=4;spacingRight=4;overflow=hidden;rotatable=0;points=[[0,0.5],[1,0.5]];portConstraint=eastwest;" parent="xE9GC7qUYU_D9eysOOlt-25" vertex="1">
          <mxGeometry y="26" width="510" height="124" as="geometry"/>
        </mxCell>
        <mxCell id="xE9GC7qUYU_D9eysOOlt-27" value="" style="line;strokeWidth=1;fillColor=none;align=left;verticalAlign=middle;spacingTop=-1;spacingLeft=3;spacingRight=3;rotatable=0;labelPosition=right;points=[];portConstraint=eastwest;" parent="xE9GC7qUYU_D9eysOOlt-25" vertex="1">
          <mxGeometry y="150" width="510" height="8" as="geometry"/>
        </mxCell>
        <mxCell id="xE9GC7qUYU_D9eysOOlt-28" value="+ SingleStoryHome()&#xa;+ setBedroomCount(borrowedRoomNumber : int) : void&#xa;+ setBathrromCount(borrowedRoomNumber : int) : void&#xa;+ getMaxHomeArea() : double&#xa;+ getMaxRoomCount() : int&#xa;+ getBedroomCount() : int&#xa;+ getBathroomCount() : int&#xa;+ getBedrromArea() : double&#xa;+ getBathroomArea() : double&#xa;+ getKitchenArea() : double&#xa;+ getLivingroomArea() : double&#xa;+ getHomeArea() : double " style="text;strokeColor=none;fillColor=none;align=left;verticalAlign=top;spacingLeft=4;spacingRight=4;overflow=hidden;rotatable=0;points=[[0,0.5],[1,0.5]];portConstraint=eastwest;" parent="xE9GC7qUYU_D9eysOOlt-25" vertex="1">
          <mxGeometry y="158" width="510" height="182" as="geometry"/>
        </mxCell>
        <mxCell id="xE9GC7qUYU_D9eysOOlt-29" value="STOP" style="ellipse;whiteSpace=wrap;html=1;" parent="xE9GC7qUYU_D9eysOOlt-1" vertex="1">
          <mxGeometry x="365" y="470" width="120" height="40" as="geometry"/>
        </mxCell>
        <mxCell id="xE9GC7qUYU_D9eysOOlt-30" value="" style="endArrow=classic;html=1;entryX=0.5;entryY=0;entryDx=0;entryDy=0;exitX=0.502;exitY=1.008;exitDx=0;exitDy=0;exitPerimeter=0;" parent="xE9GC7qUYU_D9eysOOlt-1" source="xE9GC7qUYU_D9eysOOlt-28" target="xE9GC7qUYU_D9eysOOlt-29" edge="1">
          <mxGeometry width="50" height="50" relative="1" as="geometry">
            <mxPoint x="610" y="500" as="sourcePoint"/>
            <mxPoint x="660" y="450" as="targetPoint"/>
          </mxGeometry>
        </mxCell>
      </root>
    </mxGraphModel>
  </diagram>
</mxfile>
